<?xml version="1.0" standalone="no"?>
<!DOCTYPE svg PUBLIC "-//W3C//DTD SVG 20010904//EN"
 "http://www.w3.org/TR/2001/REC-SVG-20010904/DTD/svg10.dtd">
<svg version="1.0" xmlns="http://www.w3.org/2000/svg"
 width="244.000000pt" height="244.000000pt" viewBox="0 0 244.000000 244.000000"
 preserveAspectRatio="xMidYMid meet">
<metadata>
Created by potrace 1.15, written by Peter Selinger 2001-2017
</metadata>
<g transform="translate(0.000000,244.000000) scale(0.100000,-0.100000)"
fill="#000000" stroke="none">
<path d="M1053 2165 c-215 -39 -373 -125 -530 -288 -241 -252 -323 -612 -216
-952 100 -316 364 -558 701 -642 93 -23 331 -23 424 0 240 60 453 206 585 402
204 303 216 694 32 1021 -61 110 -233 282 -343 343 -199 113 -439 155 -653
116z m395 -124 c283 -82 501 -299 588 -586 24 -80 27 -106 27 -235 0 -129 -3
-155 -26 -233 -41 -133 -90 -222 -185 -334 -91 -108 -268 -217 -417 -258 -93
-25 -274 -31 -372 -12 -339 65 -607 326 -678 663 -19 91 -19 256 1 352 67 325
332 588 664 658 96 20 304 12 398 -15z"/>
<path d="M1743 1777 c-34 -15 -72 -77 -98 -159 l-24 -73 -11 31 c-21 59 -47
99 -74 114 -26 14 -28 14 -56 -17 -16 -17 -36 -58 -46 -90 -24 -79 -29 -82
-43 -27 -7 26 -19 60 -27 77 -17 31 -61 77 -75 77 -16 0 -22 -94 -10 -158 15
-79 34 -137 77 -230 30 -67 35 -72 54 -62 33 18 73 87 91 158 9 35 18 61 21
56 3 -5 22 -60 42 -121 21 -62 41 -113 46 -113 40 0 112 138 151 287 19 76 27
247 12 256 -5 3 -18 0 -30 -6z"/>
<path d="M787 1754 c-15 -14 -39 -42 -52 -62 -56 -85 -104 -291 -91 -395 10
-74 17 -82 49 -57 38 30 69 85 93 170 12 41 24 68 27 60 48 -151 87 -184 141
-120 24 29 56 114 56 149 0 26 15 -1 35 -62 19 -61 80 -142 97 -131 7 4 9 43
5 108 -4 78 -12 122 -37 193 -48 140 -85 173 -129 117 -23 -29 -61 -125 -61
-154 0 -52 -22 -19 -55 82 -21 62 -40 116 -44 120 -4 4 -19 -4 -34 -18z"/>
<path d="M523 1102 c-15 -10 25 -134 67 -207 279 -485 958 -510 1252 -45 74
116 105 223 74 249 -24 20 -107 8 -203 -30 -72 -28 -83 -35 -83 -56 0 -27 9
-32 75 -41 l46 -7 -31 -47 c-105 -158 -309 -267 -501 -268 -76 0 -199 33 -268
72 -82 46 -208 178 -256 267 -22 41 -51 82 -65 92 -29 21 -90 33 -107 21z"/>
</g>
</svg>
